<?xml version="1.0" encoding="UTF-8" standalone="no"?>
<svg width="512" height="512" viewBox="0 0 135.46666 135.46665" version="1.1" id="svg12" inkscape:version="1.1.1 (c3084ef, 2021-09-22)" sodipodi:docname="TrackMap.svg" xmlns:inkscape="http://www.inkscape.org/namespaces/inkscape" xmlns:sodipodi="http://sodipodi.sourceforge.net/DTD/sodipodi-0.dtd" xmlns:xlink="http://www.w3.org/1999/xlink" xmlns="http://www.w3.org/2000/svg" xmlns:svg="http://www.w3.org/2000/svg">
   <sodipodi:namedview id="namedview14" pagecolor="#505050" bordercolor="#ffffff" borderopacity="1" inkscape:pageshadow="0" inkscape:pageopacity="0" inkscape:pagecheckerboard="1" inkscape:document-units="mm" showgrid="false" width="512mm" units="px" inkscape:zoom="1.0679102" inkscape:cx="196.17754" inkscape:cy="242.06155" inkscape:window-width="1440" inkscape:window-height="847" inkscape:window-x="0" inkscape:window-y="25" inkscape:window-maximized="0" inkscape:current-layer="layer4" />
   <defs id="defs9">
      <linearGradient id="linearGradient1564" inkscape:swatch="solid">
         <stop style="stop-color:#000000;stop-opacity:1;" offset="0" id="stop1562" />
      </linearGradient>
      <inkscape:path-effect effect="skeletal" id="path-effect9524" is_visible="true" lpeversion="1" pattern="M 0,4.9921381 C 0,2.2364779 2.2364779,0 4.9921381,0 c 2.7556603,0 4.9921381,2.2364779 4.9921381,4.9921381 0,2.7556603 -2.2364778,4.9921381 -4.9921381,4.9921381 C 2.2364779,9.9842762 0,7.7477984 0,4.9921381 Z" copytype="single_stretched" prop_scale="1" scale_y_rel="false" spacing="0" normal_offset="0" tang_offset="0" prop_units="false" vertical_pattern="false" hide_knot="false" fuse_tolerance="0" />
      <inkscape:path-effect effect="skeletal" id="path-effect9520" is_visible="true" lpeversion="1" pattern="M 0,4.9921381 C 0,2.2364779 2.2364779,0 4.9921381,0 c 2.7556603,0 4.9921381,2.2364779 4.9921381,4.9921381 0,2.7556603 -2.2364778,4.9921381 -4.9921381,4.9921381 C 2.2364779,9.9842762 0,7.7477984 0,4.9921381 Z" copytype="single_stretched" prop_scale="1" scale_y_rel="false" spacing="0" normal_offset="0" tang_offset="0" prop_units="false" vertical_pattern="false" hide_knot="false" fuse_tolerance="0" />
      <inkscape:path-effect effect="skeletal" id="path-effect9516" is_visible="true" lpeversion="1" pattern="M 0,4.9921381 C 0,2.2364779 2.2364779,0 4.9921381,0 c 2.7556603,0 4.9921381,2.2364779 4.9921381,4.9921381 0,2.7556603 -2.2364778,4.9921381 -4.9921381,4.9921381 C 2.2364779,9.9842762 0,7.7477984 0,4.9921381 Z" copytype="single_stretched" prop_scale="1" scale_y_rel="false" spacing="0" normal_offset="0" tang_offset="0" prop_units="false" vertical_pattern="false" hide_knot="false" fuse_tolerance="0" />
      <inkscape:path-effect effect="skeletal" id="path-effect9265" is_visible="true" lpeversion="1" pattern="M 0,4.9921381 C 0,2.2364779 2.2364779,0 4.9921381,0 c 2.7556603,0 4.9921381,2.2364779 4.9921381,4.9921381 0,2.7556603 -2.2364778,4.9921381 -4.9921381,4.9921381 C 2.2364779,9.9842762 0,7.7477984 0,4.9921381 Z" copytype="single_stretched" prop_scale="1" scale_y_rel="false" spacing="0" normal_offset="0" tang_offset="0" prop_units="false" vertical_pattern="false" hide_knot="false" fuse_tolerance="0" />
      <inkscape:path-effect effect="skeletal" id="path-effect9261" is_visible="true" lpeversion="1" pattern="M 0,4.9921381 C 0,2.2364779 2.2364779,0 4.9921381,0 c 2.7556603,0 4.9921381,2.2364779 4.9921381,4.9921381 0,2.7556603 -2.2364778,4.9921381 -4.9921381,4.9921381 C 2.2364779,9.9842762 0,7.7477984 0,4.9921381 Z" copytype="single_stretched" prop_scale="1" scale_y_rel="false" spacing="0" normal_offset="0" tang_offset="0" prop_units="false" vertical_pattern="false" hide_knot="false" fuse_tolerance="0" />
      <linearGradient id="linearGradient9065" inkscape:swatch="solid">
         <stop style="stop-color:#af0000;stop-opacity:1;" offset="0" id="stop9063" />
      </linearGradient>
      <linearGradient id="linearGradient8784" inkscape:swatch="solid">
         <stop style="stop-color:#0e6e00;stop-opacity:1;" offset="0" id="stop8782" />
      </linearGradient>
      <linearGradient id="linearGradient8668" inkscape:swatch="solid">
         <stop style="stop-color:#000000;stop-opacity:1;" offset="0" id="stop8666" />
      </linearGradient>
      <linearGradient id="linearGradient8644" inkscape:swatch="solid">
         <stop style="stop-color:#28d0db;stop-opacity:1;" offset="0" id="stop8642" />
      </linearGradient>
      <linearGradient id="linearGradient8602" inkscape:swatch="solid">
         <stop style="stop-color:#000000;stop-opacity:1;" offset="0" id="stop8600" />
      </linearGradient>
      <marker style="overflow:visible" id="Arrow2Lstart" refX="0.0" refY="0.0" orient="auto" inkscape:stockid="Arrow2Lstart" inkscape:isstock="true">
         <path transform="scale(1.1) translate(1,0)" d="M 8.7185878,4.0337352 L -2.2072895,0.016013256 L 8.7185884,-4.0017078 C 6.9730900,-1.6296469 6.9831476,1.6157441 8.7185878,4.0337352 z " style="stroke:context-stroke;fill-rule:evenodd;fill:context-stroke;stroke-width:0.62500000;stroke-linejoin:round" id="path1985" />
      </marker>
      <marker style="overflow:visible" id="Arrow1Lstart" refX="0.0" refY="0.0" orient="auto" inkscape:stockid="Arrow1Lstart" inkscape:isstock="true">
         <path transform="scale(0.8) translate(12.5,0)" style="fill-rule:evenodd;fill:context-stroke;stroke:context-stroke;stroke-width:1.0pt" d="M 0.0,0.0 L 5.0,-5.0 L -12.5,0.0 L 5.0,5.0 L 0.0,0.0 z " id="path1967" />
      </marker>
      <linearGradient inkscape:collect="always" xlink:href="#linearGradient8644" id="linearGradient8670" x1="39.753029" y1="49.859295" x2="57.445385" y2="49.859295" gradientUnits="userSpaceOnUse" />
      <linearGradient inkscape:collect="always" xlink:href="#linearGradient8784" id="linearGradient8786" x1="-61.158498" y1="15.48691" x2="-42.021808" y2="15.48691" gradientUnits="userSpaceOnUse" gradientTransform="matrix(0.36858852,0,0,0.41573356,142.34331,13.322236)" />
      <linearGradient inkscape:collect="always" xlink:href="#linearGradient9065" id="linearGradient9067" x1="-63.723204" y1="-3.9457095" x2="-52.675218" y2="-3.9457095" gradientUnits="userSpaceOnUse" gradientTransform="matrix(0.7142857,0,0,0.88888888,64.98515,85.778413)" />
      <linearGradient inkscape:collect="always" xlink:href="#linearGradient8784" id="linearGradient5204" gradientUnits="userSpaceOnUse" gradientTransform="matrix(0.36858852,0,0,0.41573356,38.186601,44.324377)" x1="-61.158498" y1="15.48691" x2="-42.021808" y2="15.48691" />
      <linearGradient inkscape:collect="always" xlink:href="#linearGradient8784" id="linearGradient5237" gradientUnits="userSpaceOnUse" gradientTransform="matrix(0.36858852,0,0,0.41573356,112.27929,66.465599)" x1="-61.158498" y1="15.48691" x2="-42.021808" y2="15.48691" />
      <linearGradient inkscape:collect="always" xlink:href="#linearGradient8784" id="linearGradient5270" gradientUnits="userSpaceOnUse" gradientTransform="matrix(0.36858852,0,0,0.41573356,48.987197,58.635167)" x1="-61.158498" y1="15.48691" x2="-42.021808" y2="15.48691" />
      <linearGradient inkscape:collect="always" xlink:href="#linearGradient9065" id="linearGradient5303" gradientUnits="userSpaceOnUse" gradientTransform="matrix(0.7142857,0,0,0.88888888,46.387681,78.734385)" x1="-63.723204" y1="-3.9457095" x2="-52.675218" y2="-3.9457095" />
      <linearGradient inkscape:collect="always" xlink:href="#linearGradient9065" id="linearGradient5336" gradientUnits="userSpaceOnUse" gradientTransform="matrix(0.7142857,0,0,0.88888888,123.6554,34.01898)" x1="-63.723204" y1="-3.9457095" x2="-52.675218" y2="-3.9457095" />
      <linearGradient inkscape:collect="always" xlink:href="#linearGradient9065" id="linearGradient5369" gradientUnits="userSpaceOnUse" gradientTransform="matrix(0.7142857,0,0,0.88888888,91.79364,32.93892)" x1="-63.723204" y1="-3.9457095" x2="-52.675218" y2="-3.9457095" />
      <linearGradient inkscape:collect="always" xlink:href="#linearGradient9065" id="linearGradient5402" gradientUnits="userSpaceOnUse" gradientTransform="matrix(0.7142857,0,0,0.88888888,120.68524,86.920178)" x1="-63.723204" y1="-3.9457095" x2="-52.675218" y2="-3.9457095" />
      <linearGradient inkscape:collect="always" xlink:href="#linearGradient9065" id="linearGradient5435" gradientUnits="userSpaceOnUse" gradientTransform="matrix(0.7142857,0,0,0.88888888,86.663359,49.679842)" x1="-63.723204" y1="-3.9457095" x2="-52.675218" y2="-3.9457095" />
   </defs>
   <g inkscape:groupmode="layer" id="layer7" inkscape:label="Track" style="display:inline">
      <path style="fill:#808080;fill-opacity:1;stroke:none;stroke-width:0.264583;stroke-opacity:1" id="path1305" d="m 52.672072,67.500859 c 0.654598,1.031542 1.508096,1.904235 2.370831,2.760096 0.928129,1.023935 1.839584,2.070055 2.671564,3.174212 0.610417,0.771683 1.134602,1.601126 1.651658,2.435809 0.76199,1.032029 1.476164,2.096149 2.241199,3.125775 1.047892,1.603282 2.270283,3.062443 3.618423,4.418549 1.53317,1.616549 3.329344,2.941976 5.10595,4.273741 1.588989,1.119788 3.153569,2.257896 4.555048,3.607379 1.155483,1.214871 2.437574,2.310371 3.977235,3.009712 0.39696,0.180306 0.815406,0.308975 1.223108,0.463463 1.898356,0.575246 3.877191,0.700323 5.847882,0.663403 1.489969,-0.06132 2.972826,-0.197607 4.444838,-0.434655 2.591398,-0.565475 4.365689,-2.162818 6.055085,-4.085053 0.990573,-1.191146 1.930294,-2.464443 2.595375,-3.871926 0.172444,-0.364931 0.314814,-0.743333 0.47222,-1.114999 0.620332,-1.682559 1.069552,-3.41816 1.535082,-5.147609 0.76957,-3.15555 0.60059,-6.427919 0.22539,-9.623755 -0.25376,-1.970527 -0.75699,-3.903927 -1.65811,-5.682644 -0.499523,-0.986015 -0.847982,-1.459106 -1.442887,-2.355107 -1.035066,-1.431599 -2.212969,-2.746772 -3.247175,-4.178982 -0.09257,-0.130786 -0.192228,-0.256826 -0.277696,-0.392356 -0.110811,-0.175721 -0.180944,-0.37433 -0.283197,-0.555162 -0.420828,-0.744217 -0.85302,-1.480659 -1.265431,-2.229676 -0.575514,-1.170704 -1.179163,-2.341742 -1.542306,-3.600442 -0.225269,-0.780809 -0.292661,-1.211199 -0.454205,-2.019464 -0.12845,-0.907023 -0.332121,-2.955676 0.526812,-3.610562 0.591473,-0.353711 1.241515,-0.499973 1.912731,-0.617932 1.161264,-0.181186 2.339363,-0.172455 3.51119,-0.172796 1.474017,-0.06748 2.967854,-0.258273 4.366064,-0.754714 0.97329,-0.345569 1.16062,-0.47558 2.01964,-0.920697 1.11121,-0.630473 2.15518,-1.361001 3.18506,-2.113928 1.11925,-0.772639 2.26472,-1.507061 3.3783,-2.289199 1.1451,-0.815549 2.04893,-1.895483 3.19358,-2.708727 1.25892,-0.879391 2.48697,-1.801141 3.74918,-2.675835 1.30882,-0.862965 2.78444,-1.37488 4.24254,-1.916681 1.35162,-0.51912 2.69913,-1.041717 3.99369,-1.691386 1.90323,-0.978315 3.41639,-2.453344 4.81085,-4.045461 1.37326,-1.569464 2.40583,-3.38615 2.94599,-5.406914 0.11175,-0.41807 0.18283,-0.845966 0.27425,-1.268948 0.35669,-2.711601 -0.1704,-5.300056 -1.53887,-7.673465 -0.27314,-0.473716 -0.60427,-0.911544 -0.9064,-1.367316 -1.48368,-1.7844368 -3.38785,-3.0018236 -5.70762,-3.3492549 -1.34535,-0.2014929 -1.73452,-0.042606 -3.09241,0.1475304 -1.40203,0.4875067 -1.49083,0.4229999 -2.72486,1.217509 -0.94665,0.609483 -0.80199,0.6470981 -1.56923,1.2370155 -0.19546,0.150287 -0.42936,0.24253 -0.64307,0.365503 -1.42042,0.783606 -2.91987,1.41938 -4.45765,1.932175 -1.66915,0.555523 -3.32576,1.14963 -5.04022,1.552121 -2.39625,0.488671 -4.70412,1.307002 -7.01587,2.089471 -1.529502,0.437638 -3.025223,0.989861 -4.549307,1.443758 -0.276831,0.08244 -1.428745,0.359915 -1.657956,0.415959 -1.094833,0.176787 -2.127391,0.652836 -3.221776,0.822559 -0.481161,0.07462 -0.967367,0.111969 -1.450795,0.170116 -2.65811,0.45253 -5.3487,0.716893 -7.996624,1.230044 -0.72091,0.139708 -1.43561,0.309752 -2.153417,0.464627 -4.133382,0.977396 -8.163721,2.333524 -12.167661,3.738663 -3.583429,1.246321 -7.195963,2.400132 -10.871845,3.34044 -2.971631,0.684554 -5.935872,1.421945 -8.949899,1.901746 -1.539507,0.24507 -3.106399,0.41707 -4.653492,0.602236 -3.286522,0.387139 -6.596404,0.483934 -9.878089,0.911281 -1.271931,0.24279 -2.561614,0.272129 -3.85141,0.296868 -2.28219,0.04086 -4.563091,0.02808 -6.843966,-0.05411 -1.833359,-0.04848 -3.67847,-0.0068 -5.484639,0.342294 -1.248462,0.241324 -1.576581,0.382839 -2.784119,0.763969 -2.443674,0.884528 -4.3447626,2.026176 -5.8031647,4.272822 -1.0173592,1.567225 -0.9961891,2.346224 -1.35969,4.140854 0.015994,0.666649 -0.026541,1.337286 0.047982,1.999953 0.2605108,2.316499 1.3614582,4.348597 2.6888929,6.2093 0.4583028,0.610246 0.9230008,1.217565 1.4379488,1.781913 0.435722,0.47752 0.94075,0.901623 1.285984,1.452621 0.02733,0.168873 0.153429,0.5461 0.01318,0.688644 -0.02163,0.02199 -0.05626,-0.02527 -0.0844,-0.03789 -0.02902,0.05983 -0.05803,0.119664 -0.08704,0.179494 -0.564239,1.72068 -1.106749,3.445695 -1.789112,5.123794 -0.9597786,2.070433 -1.9206445,4.140237 -2.8798112,6.211067 -0.9332224,1.98946 -1.8147927,4.003386 -2.5683135,6.068099 -0.1106141,0.392827 -0.228771,0.783606 -0.3318423,1.178478 -0.082402,0.315685 -0.1422837,0.636958 -0.224449,0.952704 -0.3633332,1.396227 -0.8907179,2.75771 -1.3089522,4.138456 -0.8075798,2.679589 -1.306417,5.432976 -1.6175248,8.210138 -0.1882196,1.881642 -0.2068862,3.774397 -0.2142622,5.663718 -0.02099,1.464715 0.00119,2.922553 0.1507339,4.380174 0.1877335,1.455227 0.6453042,2.853725 1.0179553,4.267404 0.1454941,0.82569 0.1600056,1.66914 0.1849913,2.50533 0.022101,1.08672 0.017373,2.17376 0.01555,3.26063 0.023249,1.19572 -0.054039,2.39592 0.031766,3.59028 0.032254,0.44896 0.090779,0.89566 0.1361683,1.34348 0.355037,2.59853 1.265492,5.06101 2.1823201,7.502 0.5668314,1.40089 1.0228929,2.86549 1.7410171,4.20162 0.5792729,1.07778 0.7560886,1.27031 1.4280255,2.21659 0.8542845,1.12028 1.889329,2.08008 3.1249087,2.77065 1.004396,0.56135 2.101794,0.9077 3.186159,1.27009 1.896948,0.61928 3.854496,0.92866 5.840766,1.03823 1.921143,0.0678 3.779423,-0.38016 5.635238,-0.80271 1.74858,-0.29982 3.259292,-0.87462 4.81173,-1.72548 1.276799,-0.78735 2.539476,-1.65232 3.52417,-2.80042 0.270074,-0.31489 0.501904,-0.66066 0.752859,-0.99099 1.022347,-1.58292 1.662419,-3.40503 1.890165,-5.27699 0.05665,-0.46562 0.07598,-0.93502 0.113972,-1.40253 0.06205,-2.56852 -0.320742,-5.11713 -0.866897,-7.61896 -0.499539,-2.20787 -1.590032,-4.18367 -2.861059,-6.03089 -0.652711,-0.9435 -1.470863,-1.77181 -2.062953,-2.756846 -0.797499,-1.100116 -1.526657,-2.240833 -2.247577,-3.392167 -0.181214,-0.632494 -0.331997,-1.27603 -0.48151,-1.918242 -0.157957,-0.896028 -0.301469,-1.796466 -0.39596,-2.701947 -0.0793,-0.88597 -0.08935,-1.776095 -0.09833,-2.664962 -7.94e-4,-0.131067 -0.0016,-0.262131 -0.0021,-0.393198 -0.0021,-0.563554 0.05107,-0.504901 -0.0066,-0.03597 -0.03276,0.266406 -0.07379,0.347268 -0.157985,0.596307 0.03096,-0.0011 -0.24134,0.484606 -0.230625,0.482717 0.26121,-0.04603 0.507455,-0.155499 0.76499,-0.218943 0.104032,-0.01879 0.207756,-0.03937 0.312097,-0.05636 0.713095,-0.116081 0.161632,0.01537 0.02003,0.0078 -0.526745,-0.02821 -0.540602,-0.05038 -0.95328,-0.167955 -0.90016,-0.523373 0.01511,0.187491 0.182986,0.351107 0.08488,0.08272 0.152302,0.181705 0.231293,0.270071 0.517335,0.545166 1.02352,1.100828 1.535208,1.651637 0.913847,1.010778 1.913033,1.930861 2.968561,2.790347 1.109679,0.810625 2.291572,1.51375 3.411633,2.309979 0.825299,0.743119 1.735495,1.382453 2.655165,2.001652 1.566281,1.093216 3.230539,1.999663 4.989835,2.737563 1.888263,0.78741 3.903666,1.05252 5.931411,1.10354 2.649297,-0.0832 4.455009,-1.16587 6.493192,-2.694481 1.065652,-0.860655 2.141726,-1.792346 2.882953,-2.962423 0.205857,-0.324953 0.374637,-0.671962 0.561957,-1.007943 0.832821,-1.912089 0.937281,-3.993761 0.366339,-5.998811 -0.113583,-0.398878 -0.269944,-0.784315 -0.404913,-1.176472 -0.416637,-1.142519 -1.127355,-2.171126 -1.478544,-3.339063 -0.40058,-1.231562 -0.924722,-2.412519 -1.540455,-3.550029 -0.866674,-1.585629 -2.235591,-2.752754 -3.677539,-3.793156 -0.963644,-0.596948 -1.892707,-1.229384 -2.773555,-1.940391 -1.063474,-0.934275 -2.192753,-1.786522 -3.268441,-2.706195 -0.913852,-0.671023 -1.647996,-1.542587 -2.5225,-2.258663 -0.299701,-0.245407 -0.611566,-0.47557 -0.917347,-0.713354 -0.956959,-0.760071 -2.076818,-1.335331 -2.979415,-2.165615 -0.262456,-0.241429 -0.450652,-0.552823 -0.673283,-0.8314 -0.708154,-1.025837 -1.595786,-1.987637 -1.989029,-3.190877 -0.07235,-0.116975 0.08551,-0.12028 0.0984,-0.190614 0.02831,-0.154422 0.01474,-0.313791 0.03043,-0.470003 0.04878,-0.486146 0.146071,-0.967076 0.237043,-1.446499 0.290198,-1.324726 0.255656,-2.689767 0.4709,-4.023084 0.02972,-0.102108 0.0457,-0.20927 0.08917,-0.306327 0.01296,-0.02894 0.05436,-0.03465 0.0745,-0.05913 0.259744,-0.315807 0.457652,-0.636461 0.763153,-0.916361 0.633201,-0.61967 1.279266,-1.197406 2.066388,-1.607468 1.005136,-0.37428 2.048603,-0.613402 3.117541,-0.694145 -0.139121,-0.08309 0.68036,0.159187 0.483137,0.158411 -0.29032,-0.0011 -0.536218,-0.13589 -0.776899,-0.27506 -0.02685,-0.01111 -0.08113,-0.0624 -0.08054,-0.03335 0.0011,0.05571 0.05265,0.09835 0.08279,0.145205 0.07968,0.123878 0.163954,0.24474 0.246483,0.366737 0.366988,0.542478 0.751912,1.066969 1.150456,1.586648 0.700781,0.91544 1.432568,1.803934 2.120098,2.729592 0.709007,0.957038 1.212631,2.04012 1.804059,3.069177 0.662916,1.249114 1.47969,2.401779 2.236655,3.591679 0.439336,0.640911 0.804543,1.324674 1.183291,2.001968 0,0 8.716137,-4.901949 8.716137,-4.901949 v 0 C 61.310843,61.954878 60.841136,61.0871 60.285302,60.270948 59.602706,59.229286 58.897176,58.204075 58.308798,57.102983 57.514226,55.756717 56.857699,54.323723 55.882437,53.088867 55.158235,52.114341 54.392163,51.175245 53.651912,50.213445 52.7831,49.099729 52.102589,47.840452 51.066113,46.861367 c -0.331129,-0.273254 -0.64271,-0.57209 -0.993384,-0.819761 -1.8973,-1.340009 -4.201781,-1.714299 -6.475819,-1.613723 -2.426962,0.280241 -4.82713,0.801812 -7.012088,1.938925 -0.85988,0.500576 -1.057029,0.583737 -1.858169,1.176433 -0.927127,0.685903 -1.75232,1.501179 -2.581164,2.298726 -0.268774,0.297553 -0.551759,0.582856 -0.80632,0.892656 -1.370897,1.668386 -2.342354,3.639723 -2.714329,5.772579 -0.169974,1.215639 -0.219691,2.439977 -0.409374,3.652179 -0.465704,2.552477 -0.691732,5.157499 0.188754,7.659258 0.16914,0.400127 0.320672,0.808162 0.507423,1.200378 0.811403,1.704094 1.983245,3.207332 3.11386,4.705167 0.924444,1.071457 1.055902,1.293112 2.167686,2.270303 0.960353,0.844092 2.078718,1.497597 3.101335,2.25924 1.089739,0.750644 1.904238,1.837928 2.984291,2.606325 1.147384,0.974844 2.341809,1.888649 3.476524,2.878672 1.042506,0.839862 2.121811,1.624754 3.269861,2.31571 0.216731,0.145714 0.45747,0.380042 0.672772,0.506259 0.105222,0.06168 -0.205835,-0.275664 -0.06151,-0.169026 0.04683,0.0346 0.06678,0.0954 0.100174,0.1431 0.369977,0.615122 0.598373,1.302469 0.837898,1.975625 0.440338,1.226362 0.967258,2.415791 1.563523,3.574836 0.04491,0.05036 0.08779,0.229388 0.114049,0.167232 0.03954,-0.0936 0.01492,-0.20315 0.03439,-0.302871 0.0432,-0.221118 0.216374,-0.42123 0.289084,-0.627187 0.0699,-0.09834 0.134638,-0.200565 0.209709,-0.295016 0.01445,-0.01815 0.05902,-0.06335 0.05676,-0.04026 -0.01802,0.184396 -0.667811,0.644893 -0.776089,0.75796 -0.02492,0.0191 -0.81793,0.586766 -0.790392,0.620808 0.06593,0.0815 0.34721,-0.07654 0.422603,0.05147 -0.74168,0.04039 -1.496333,-0.08922 -2.193309,-0.340064 -0.301045,-0.122777 -0.611041,-0.225898 -0.902335,-0.3703 -0.827905,-0.410416 -1.581549,-0.958802 -2.364171,-1.445204 -0.858393,-0.566669 -1.653767,-1.204672 -2.447004,-1.85869 -0.970031,-0.681027 -1.959941,-1.332111 -2.958264,-1.970487 -0.694116,-0.506958 -1.269336,-1.154777 -1.864889,-1.769761 -0.487476,-0.523121 -0.973135,-1.047597 -1.460098,-1.56999 -1.006837,-1.09773 -2.102104,-2.122374 -3.402361,-2.867438 -0.371073,-0.160102 -0.727925,-0.358341 -1.113222,-0.480306 -1.752346,-0.554696 -3.526819,-0.436689 -5.281235,0.01812 -2.662112,0.743363 -4.559503,1.599803 -6.280649,3.892476 -0.243914,0.41661 -0.522938,0.814565 -0.731741,1.249836 -0.629277,1.311796 -0.803067,2.749108 -0.748104,4.18469 0.01284,1.213678 0.03504,2.428854 0.155874,3.637529 0.144434,1.304922 0.338378,2.606328 0.598347,3.893237 0.398791,1.712929 0.839299,3.430618 1.746202,4.958968 0.739044,1.17954 1.486286,2.35177 2.302547,3.47894 0.705241,1.07676 1.485383,2.09431 2.291295,3.09762 0.54545,0.74753 1.04648,1.5513 1.287972,2.45204 0.357304,1.59071 0.615109,3.20756 0.65083,4.84085 0.0044,0.52051 -0.07375,1.05138 -0.203195,1.54817 0.03279,-0.0201 0.0599,-0.06 0.09836,-0.0603 0.0205,-2.1e-4 -0.0013,0.0446 -0.01548,0.0595 -0.07983,0.0852 -0.172747,0.15705 -0.26011,0.23447 -0.288021,0.25524 -0.154336,0.1329 -0.592596,0.43514 -0.06583,0.0454 -0.129977,0.0932 -0.194966,0.13976 -0.11289,0.0655 -0.342465,0.24884 -0.484706,0.3018 -0.542055,0.20185 -1.129413,0.25693 -1.684208,0.40969 -0.988406,0.22597 -1.969635,0.51449 -2.988463,0.56102 -1.057248,-0.005 -2.087828,-0.24764 -3.101122,-0.53416 -0.365086,-0.12125 -0.717977,-0.28761 -1.094753,-0.36527 -0.03122,-0.006 -0.03604,0.19497 -0.04352,0.18937 -0.09415,-0.0706 -0.162629,-0.17008 -0.243944,-0.25512 -0.165045,-0.21473 -0.358453,-0.41073 -0.493317,-0.6456 -0.612466,-1.06661 -0.920046,-2.29126 -1.405469,-3.4131 -0.626477,-1.66608 -1.285469,-3.33394 -1.60478,-5.09271 -0.169376,-1.26364 -0.09729,-2.53651 -0.106319,-3.80851 0.002,-1.19543 0.0069,-2.39104 -0.02031,-3.58625 -0.05073,-1.600192 -0.12446,-3.211499 -0.517391,-4.771281 -0.250332,-0.932786 -0.533897,-1.85883 -0.742448,-2.80139 -0.143355,-1.072078 -0.06874,-2.154962 -0.08914,-3.233774 0.0055,-1.537195 0.01273,-3.077477 0.154535,-4.609346 0.23211,-2.171356 0.626416,-4.321977 1.2521,-6.417024 0.572644,-1.913041 1.305696,-3.784267 1.692397,-5.748287 0.644725,-1.799207 1.438852,-3.539758 2.24097,-5.273109 1.028664,-2.222802 2.069382,-4.440007 3.079051,-6.671337 0.866243,-2.160108 1.598352,-4.370339 2.256035,-6.602685 0.283423,-1.404223 0.444401,-1.814306 0.388109,-3.325709 -0.07729,-2.075167 -0.821887,-4.040423 -1.961213,-5.754259 C 20.036382,46.02272 19.786411,45.676952 19.51322,45.3499 18.907122,44.624301 18.162817,44.018144 17.64323,43.218298 17.4451,42.963321 17.240645,42.705874 17.072755,42.429175 c -0.04911,-0.08093 -0.07992,-0.172894 -0.135159,-0.249766 -0.02244,-0.03123 -0.05528,-0.07441 -0.0932,-0.068 -0.04738,0.008 -0.0685,0.06741 -0.102757,0.101119 -0.06035,0.06875 -0.107208,0.152254 -0.18105,0.206256 -0.04249,0.03108 -0.105129,0.01683 -0.153232,0.03822 -0.143079,0.0636 -0.262815,0.190627 -0.417413,0.21544 -0.06622,0.01064 0.0629,-0.121825 0.112861,-0.166561 0.308808,-0.276487 0.593711,-0.342751 0.990847,-0.510349 1.640947,-0.572966 3.059166,-0.711422 4.807765,-0.619054 2.466475,0.08785 4.933141,0.103511 7.400957,0.05854 1.658723,-0.03404 3.319526,-0.08931 4.95726,-0.380389 3.242307,-0.432565 6.520937,-0.479523 9.766017,-0.897173 1.887265,-0.227515 3.350421,-0.385231 5.233524,-0.689248 3.253526,-0.525264 6.456627,-1.311021 9.66407,-2.057537 3.95301,-1.018368 7.84429,-2.244894 11.69805,-3.591065 3.616936,-1.270937 7.255745,-2.503398 10.985751,-3.403603 0.571407,-0.126357 1.140015,-0.266115 1.714222,-0.379069 2.485469,-0.488912 5.014886,-0.722114 7.509404,-1.158695 0.801844,-0.09804 1.628899,-0.18728 2.422509,-0.337015 1.162013,-0.219247 2.272834,-0.640035 3.432098,-0.871853 2.376395,-0.586602 4.692501,-1.363729 7.026461,-2.098563 2.03194,-0.68778 4.05298,-1.426193 6.16247,-1.842283 1.99986,-0.49319 3.95418,-1.12954 5.90052,-1.80165 2.21044,-0.758563 4.37579,-1.667246 6.40409,-2.835728 0.99949,-0.614085 0.99116,-0.576092 1.94672,-1.300977 0.13172,-0.09992 0.25696,-0.208606 0.377,-0.322293 0.0197,-0.01867 0.066,-0.06999 0.0389,-0.07159 -0.18778,-0.01111 -0.35524,0.18714 -0.5553,0.100491 -0.53069,-0.02121 -1.23588,-0.144139 -1.35901,-0.766726 0.3344,0.151054 0.38929,0.689221 0.55989,0.967895 0.0159,0.02602 0.0699,-0.0224 0.0915,-9e-4 0.0339,0.03364 0.0988,0.255364 0.11441,0.30464 -0.0301,0.222813 -0.11802,0.90164 -0.23006,1.089796 -0.13213,0.221888 -0.58082,0.781652 -0.73608,0.980054 -0.546,0.640603 -1.07466,1.282272 -1.82101,1.699925 -0.92488,0.502863 -1.94611,0.800905 -2.91189,1.214871 -2.24248,0.833272 -4.47437,1.714053 -6.46146,3.075447 -1.34701,0.936242 -2.66185,1.916613 -4.0045,2.859067 -1.05455,0.796499 -2.03876,1.661175 -2.9976,2.567 -1.15751,0.820063 -2.36347,1.568135 -3.5191,2.390291 -0.65511,0.479031 -1.309421,0.95386 -2.006095,1.372092 -0.06898,0.04208 -0.143881,0.07572 -0.206941,0.126246 -0.01122,0.009 0.0088,0.03676 -0.0042,0.04291 -0.45089,0.213598 -0.972934,0.2579 -1.458952,0.320506 -1.896671,0.0021 -3.801994,0.03288 -5.669018,0.410069 -0.450557,0.107106 -0.907159,0.191392 -1.351672,0.321324 -2.84376,0.831228 -5.252627,2.485741 -6.969937,4.913381 -0.323586,0.593024 -0.695643,1.162066 -0.970756,1.779074 -1.259676,2.825155 -1.272064,6.014056 -0.773367,9.008165 0.292653,1.378019 0.368377,1.889768 0.790808,3.244864 0.561517,1.801267 1.385549,3.505215 2.244148,5.179779 0.787009,1.4209 1.56876,2.856029 2.476934,4.202467 0.970624,1.340086 2.028812,2.606323 3.054564,3.903033 0.05271,0.07635 0.577575,0.829191 0.670716,0.987301 0.481489,0.817356 0.677577,1.734952 0.798008,2.667952 0.24312,1.922052 0.416552,3.908467 0.04536,5.823823 -0.362358,1.348055 -0.709536,2.700338 -1.159606,4.022548 -0.243731,0.821613 -0.827383,1.513485 -1.35297,2.171565 -0.536877,0.647335 0.02426,-0.01614 -0.560176,0.63368 -0.06122,0.06806 -0.254344,0.220712 -0.162801,0.221175 0.192762,0.0011 0.368808,-0.152003 0.570868,-0.09238 -1.014643,0.190474 -2.047835,0.229839 -3.075832,0.299641 -0.767344,0.04669 -1.532136,-0.03295 -2.293821,-0.121642 -0.03325,0.01058 -0.05506,0.0614 -0.0893,0.05465 -0.509622,-0.100524 -1.05782,-1.079821 -1.463976,-1.305836 -1.698938,-1.613434 -3.538779,-3.045139 -5.465329,-4.378317 -1.408816,-1.055028 -2.85396,-2.080188 -4.060626,-3.371381 -1.022517,-0.986187 -1.854386,-2.125599 -2.647641,-3.301617 -0.609404,-0.809879 -1.14691,-1.673127 -1.771483,-2.471266 -0.01286,-0.01646 0.01156,0.04013 0.01733,0.06019 -0.690523,-1.112938 -1.402289,-2.211803 -2.210152,-3.244996 -1.123894,-1.454719 -2.305854,-2.869321 -3.574671,-4.200387 -0.398823,-0.394375 -0.798143,-0.732838 -1.088089,-1.202881 0,0 -8.320508,5.547006 -8.320508,5.547006 z" />
   </g>
   <g inkscape:groupmode="layer" id="layer3" inkscape:label="PowerUps" style="display:inline">
      <circle style="display:inline;fill:url(#linearGradient5270);fill-opacity:1;stroke:#000000;stroke-width:0.1832;stroke-linejoin:round;stroke-miterlimit:4;stroke-dasharray:0, 2.0152;stroke-dashoffset:1.832;stroke-opacity:1" id="path8723-3-0" cx="29.971657" cy="65.073593" r="3.5" />
      <circle style="display:inline;fill:url(#linearGradient5237);fill-opacity:1;stroke:#000000;stroke-width:0.1832;stroke-linejoin:round;stroke-miterlimit:4;stroke-dasharray:0, 2.0152;stroke-dashoffset:1.832;stroke-opacity:1" id="path8723-3-2" cx="93.263771" cy="72.90403" r="3.5" />
      <circle style="display:inline;fill:url(#linearGradient5237);fill-opacity:1;stroke:#000000;stroke-width:0.1832;stroke-linejoin:round;stroke-miterlimit:4;stroke-dasharray:0, 2.0152;stroke-dashoffset:1.832;stroke-opacity:1" id="path9061-5-6-8" cx="50.222775" cy="29.431625" r="3.5" />
      <circle style="display:inline;fill:url(#linearGradient5237);fill-opacity:1;stroke:#000000;stroke-width:0.1832;stroke-linejoin:round;stroke-miterlimit:4;stroke-dasharray:0, 2.0152;stroke-dashoffset:1.832;stroke-opacity:1" id="path9061-5" cx="4.8168159" cy="75.227089" r="3.5" />
   </g>
   <g inkscape:groupmode="layer" id="layer4" inkscape:label="Obstacles" style="display:inline">
      <circle style="fill:url(#linearGradient9067);fill-opacity:1;stroke:#000000;stroke-width:0.372911;stroke-linejoin:round;stroke-miterlimit:4;stroke-dasharray:0, 4.10203;stroke-dashoffset:3.72911;stroke-opacity:1" id="path8723" cx="123.32777" cy="19.760664" r="3.5" />
      <circle style="fill:url(#linearGradient9067);fill-opacity:1;stroke:#000000;stroke-width:0.372911;stroke-linejoin:round;stroke-miterlimit:4;stroke-dasharray:0, 4.10203;stroke-dashoffset:3.72911;stroke-opacity:1" id="path9061" cx="23.414286" cy="82.271118" r="3.5" />
      <circle style="fill:url(#linearGradient9067);fill-opacity:1;stroke:#000000;stroke-width:0.372911;stroke-linejoin:round;stroke-miterlimit:4;stroke-dasharray:0, 4.10203;stroke-dashoffset:3.72911;stroke-opacity:1" id="path8723-3" cx="19.171061" cy="50.762806" r="3.5" />
      <circle style="display:inline;fill:url(#linearGradient5336);fill-opacity:1;stroke:#000000;stroke-width:0.372911;stroke-linejoin:round;stroke-miterlimit:4;stroke-dasharray:0, 4.10203;stroke-dashoffset:3.72911;stroke-opacity:1" id="path9061-5-6" cx="82.084534" cy="30.511686" r="3.5" />
      <circle style="display:inline;fill:url(#linearGradient5402);fill-opacity:1;stroke:#000000;stroke-width:0.372911;stroke-linejoin:round;stroke-miterlimit:4;stroke-dasharray:0, 4.10203;stroke-dashoffset:3.72911;stroke-opacity:1" id="path9061-5-6-2" cx="79.114372" cy="83.412888" r="3.5" />
      <circle style="display:inline;fill:url(#linearGradient5435);fill-opacity:1;stroke:#000000;stroke-width:0.372911;stroke-linejoin:round;stroke-miterlimit:4;stroke-dasharray:0, 4.10203;stroke-dashoffset:3.72911;stroke-opacity:1" id="path9061-5-6-2-6" cx="45.092491" cy="46.17255" r="3.5" />
   </g>
   <g inkscape:groupmode="layer" id="layer2" inkscape:label="Start" style="display:inline">
      <path style="fill:none;fill-opacity:1;stroke:url(#linearGradient8670);stroke-width:0.468;stroke-linecap:butt;stroke-linejoin:round;stroke-miterlimit:4;stroke-dasharray:0, 5.148;stroke-dashoffset:4.68;stroke-opacity:1;marker-start:url(#Arrow2Lstart)" d="M 56.934742,64.825987 C 56.395139,64.010596 55.831008,63.209106 55.357193,62.354751 L 39.753029,34.218127" id="path1117" sodipodi:nodetypes="csc" />
   </g>
   <g inkscape:groupmode="layer" id="layer5" inkscape:label="Routes" style="display:inline">

      <!-- <path style="display:inline;fill:none;stroke:#ff9955;stroke-width:0.529167;stroke-linecap:butt;stroke-linejoin:miter;stroke-miterlimit:4;stroke-dasharray:none;stroke-opacity:1" d="M 83.342672,87.875956 97.639951,84.737529 99.732236,69.045394 84.74972,54.411592 86.842004,43.24055 100.42966,42.891836 125.76779,20.225418 124.67551,16.902422 75.322248,25.45613 49.866118,37.31241 16.041,38.859333 12.856,45.286667 14.041,65.209667 5.5794258,103.56809 13.948564,123.09608 25.45613,124.49094 32.430412,116.1218 23.388228,89.283003 27.897129,83.342673 39.753409,92.060525 45.332834,96.593809 50.563546,97.447308 54.206758,94.477142 49.517404,84.737529 47.076405,78.460675 38.707266,70.091536 35.917553,67.650538 34.871411,57.537828 36.110197,53.353259 40.450837,51.958403 48.471261,54.748115 54.399401,56.491686 63.814682,72.532535 69.394108,81.250388 Z" id="path4531" /> -->
      <path style="display:inline;fill:none;stroke:#ff9955;stroke-width:0.529167;stroke-linecap:butt;stroke-linejoin:miter;stroke-miterlimit:4;stroke-dasharray:none;stroke-opacity:1" d="M 208.76278,240.21032 218.06717,252.59413 227.37157,264.97795 237.84735,279.48896 248.32313,293.99997 263.71215,309.48727 279.10117,324.97456 295.71258,332.14636 312.324,339.31816 321.6539,337.12753 330.9838,334.9369 333.5985,330.74231 336.21319,326.54773 338.82788,322.35314 341.44258,318.15855 342.04883,312.58033 342.65507,307.00211 343.26132,301.42388 343.86756,295.84566 342.51745,285.85029 341.16734,275.85492 338.03391,266.89492 334.90048,257.93492 330.18128,247.75534 325.46208,237.57576 320.9858,226.66084 316.50951,215.74592 316.47604,204.99053 316.44256,194.23513 322.33287,185.74885 328.22318,177.26256 337.1932,173.84416 346.16321,170.42576 381.1536,154.01835 416.14399,137.61093 421.82397,134.0994 427.50395,130.58787 433.91163,124.08013 440.31931,117.57239 444.4746,114.06532 448.62989,110.55825 452.08441,107.31398 455.53894,104.06971 458.50663,100.44496 461.47431,96.820204 462.99741,92.878478 464.5205,88.936753 463.37413,85.637971 462.22776,82.339189 459.47096,80.526955 456.71416,78.714722 452.29447,78.497148 447.87478,78.279574 443.10651,79.876922 438.33825,81.474271 431.77771,83.77162 425.21717,86.068969 417.65314,88.742355 410.0891,91.415741 374.37792,101.57044 338.66674,111.72514 307.19843,116.82614 275.73011,121.92713 237.66736,128.2726 199.6046,134.61806 175.86043,137.1524 152.11626,139.68673 127.74712,141.2999 103.37798,142.91307 83.203131,146.1758 63.028282,149.43854 58.432115,154.38355 53.835947,159.32857 51.342076,163.9232 48.848204,168.51782 48.871566,173.30451 48.894929,178.0912 51.020588,182.5275 53.146247,186.96381 55.271906,191.40011 57.397565,195.83642 57.77131,200.27272 58.145056,204.70902 57.810926,211.56387 57.476797,218.41872 55.390753,225.27357 53.30471,232.12842 44.200176,265.85896 35.095643,299.58951 30.163197,319.61036 25.23075,339.63122 24.909373,355.76705 24.587997,371.90288 29.009239,391.05431 33.43048,410.20575 42.042386,425.43219 50.654293,440.65863 54.653322,444.35284 58.65235,448.04705 64.753675,452.44202 70.855,456.837 78.305207,458.58692 85.755414,460.33684 95.030101,459.19353 104.30479,458.05022 107.56494,455.04016 110.82509,452.0301 112.15814,447.44333 113.49119,442.85655 113.05365,438.57143 112.61611,434.2863 111.12742,429.30042 109.63873,424.31453 100.97842,399.33398 92.318121,374.35343 93.155878,366.21649 93.993635,358.07955 95.794944,351.08136 97.596254,344.08316 101.96763,340.99281 106.339,337.90246 112.1995,336.82681 118.06,335.75115 135.1414,342.82857 152.2228,349.906 165.12832,354.48365 178.03384,359.0613 182.80074,358.1295 187.56763,357.19769 189.11367,353.04502 190.65972,348.89235 189.88061,343.67094 189.1015,338.44952 184.85378,331.98931 180.60605,325.5291 173.49925,314.3438 166.39245,303.1585 155.09422,287.67 143.796,272.1815 137.132,254.4891 130.468,236.7967 130.9917,230.62797 131.5154,224.45925 132.0391,218.29052 132.5628,212.1218 136.78585,208.17897 141.0089,204.23615 145.23195,200.29333 149.455,196.3505 156.89195,196.0159 164.3289,195.6813 173.21618,203.98615 182.10345,212.291 187.92275,219.3644 193.74205,226.4378 201.25241,233.32406 Z" id="path4531" />
   </g>
</svg>